<svg xmlns="http://www.w3.org/2000/svg" version="1.1" viewBox="-5.0 -10.0 110.0 135.0">
 <path d="m87.398 33.301h-1.1992c-7.8984-2.1016-7.3008-4.5-7.3008-4.5-0.80078-7.8008-9-7.8008-9-7.8008-12-0.80078-12 13.898-8.8984 19.102 3 5.1992-4.8008 7.6992-13.699 7.6992-13.102 0-34.398 6.3008-34.398 6.3008l5.1016 3.3984-8.1992 3c5.6016 1.5 19.801 7.8984 19.801 7.8984 12.301 7.1016 27.801 7.6992 27.801 7.6992 39.293 2.9023 29.793-27.199 20.293-30.898-5.5-2.1016-5.1016-5.6992-5.1016-5.6992 0-0.89844 0.39844-1.5 1.1016-2h13.801c1.1016 0 2.1016-0.89844 2.1016-2.1016-0.10156-1.0977-1.1016-2.0977-2.2031-2.0977z"/>
<text x="0.0" y="117.5" font-size="5.0" font-weight="bold" font-family="Arbeit Regular, Helvetica, Arial-Unicode, Arial, Sans-serif" fill="#000000">Created by Md Ahasan Habib</text><text x="0.0" y="122.5" font-size="5.0" font-weight="bold" font-family="Arbeit Regular, Helvetica, Arial-Unicode, Arial, Sans-serif" fill="#000000">from Noun Project</text></svg>